<svg xmlns="http://www.w3.org/2000/svg" xmlns:xlink="http://www.w3.org/1999/xlink" xmlns:lucid="lucid" width="574.17" height="229.38"><g transform="translate(-2112.5 -467.6221198326771)" lucid:page-tab-id="0_0"><path d="M2115.04 474.33V694.5M2115.04 474.36v-1.03M2115.04 694.47v1.03M2113.5 695.5h572.17M2113.53 695.5h-1.03M2685.64 695.5h1.03" stroke="#000" stroke-width="2" fill="none"/><path d="M2222.67 585.3a6 6 0 0 1 6-6h127.5a6 6 0 0 1 6 6v79.5a6 6 0 0 1-6 6h-127.5a6 6 0 0 1-6-6zM2261.7 683.4c0 6.96-5.64 12.6-12.6 12.6s-12.6-5.64-12.6-12.6 5.64-12.6 12.6-12.6 12.6 5.64 12.6 12.6zM2348.1 683.4c0 6.96-5.64 12.6-12.6 12.6s-12.6-5.64-12.6-12.6 5.64-12.6 12.6-12.6 12.6 5.64 12.6 12.6zM2470.83 585.3a6 6 0 0 1 6-6h127.5a6 6 0 0 1 6 6v79.5a6 6 0 0 1-6 6h-127.5a6 6 0 0 1-6-6zM2509.86 683.4c0 6.96-5.64 12.6-12.6 12.6-6.95 0-12.6-5.64-12.6-12.6s5.65-12.6 12.6-12.6c6.96 0 12.6 5.64 12.6 12.6zM2596.26 683.4c0 6.96-5.64 12.6-12.6 12.6-6.95 0-12.6-5.64-12.6-12.6s5.65-12.6 12.6-12.6c6.97 0 12.6 5.64 12.6 12.6z" stroke="#000" stroke-width="2" fill-opacity="0"/><path d="M2291.33 605v-2m0-7.96v-4m0-7.96v-3.98m0-7.97v-4m0-7.96v-3.98m0-7.98v-4m0-7.96v-3.98m0-7.97v-3.97m0-7.97v-4m0-7.96v-3.98m0-7.97v-4m0-7.96v-2M2291.33 604.97V606M2291.33 473.53v-1.03M2541 603.25v-1.86m0-7.44v-3.72m0-7.43v-3.7m0-7.44v-3.72m0-7.43v-3.7m0-7.44v-1.86M2541 603.22v1.03M2541 547.53v-1.03" stroke="#000" stroke-width="2" fill="none"/><path d="M2291.83 546.36h61M2291.85 546.36h-.52M2335.54 556.54l17.2-10.18-17.2-10.2M2293.9 475h58.96M2293.9 475h-.5M2335.57 485.2l17.22-10.2-17.23-10.17M2540.45 545.58h61M2540.46 545.58h-.5M2584.15 555.76l17.2-10.18-17.2-10.18M2170.36 680.37h49.26M2187.65 670.2l-17.22 10.17 17.22 10.18M2219.6 680.37h.53M2424.37 682h49.27M2441.66 671.82L2424.44 682l17.22 10.18M2473.63 682h.5" stroke="#000" fill="none"/><path d="M2149.8 575.6a6 6 0 0 1 6-6h26a6 6 0 0 1 6 6v14.9a6 6 0 0 1-6 6h-26a6 6 0 0 1-6-6z" fill="none"/><use xlink:href="#a" transform="matrix(1,0,0,1,2149.7976944319644,569.6119538408361) translate(11.195555555555558 18.939999999999998)"/><path d="M2149.8 656.44a6 6 0 0 1 6-6h26a6 6 0 0 1 6 6v14.9a6 6 0 0 1-6 6h-26a6 6 0 0 1-6-6z" fill="none"/><use xlink:href="#b" transform="matrix(1,0,0,1,2149.7976944319644,650.4427875916037) translate(13.16888888888889 18.939999999999998)"/><path d="M2397.5 659.6a6 6 0 0 1 6-6h26a6 6 0 0 1 6 6v14.9a6 6 0 0 1-6 6h-26a6 6 0 0 1-6-6z" fill="none"/><use xlink:href="#c" transform="matrix(1,0,0,1,2397.502106510555,653.6016137368728) translate(13.16888888888889 18.939999999999998)"/><path d="M2397.95 580.54a6 6 0 0 1 6-6h26a6 6 0 0 1 6 6v14.9a6 6 0 0 1-6 6h-26a6 6 0 0 1-6-6z" fill="none"/><use xlink:href="#d" transform="matrix(1,0,0,1,2397.9522810794438,574.5417918508732) translate(11.195555555555558 18.939999999999998)"/><path d="M2273.95 617.54a6 6 0 0 1 6-6h26a6 6 0 0 1 6 6v14.9a6 6 0 0 1-6 6h-26a6 6 0 0 1-6-6z" fill="none"/><use xlink:href="#e" transform="matrix(1,0,0,1,2273.954837286915,611.5410291115471) translate(8.484444444444446 18.939999999999998)"/><path d="M2521.6 617.54a6 6 0 0 1 6-6h25.98a6 6 0 0 1 6 6v14.9a6 6 0 0 1-6 6h-26a6 6 0 0 1-6-6z" fill="none"/><use xlink:href="#f" transform="matrix(1,0,0,1,2521.5854398438887,611.5410291115471) translate(8.484444444444446 18.939999999999998)"/><path d="M2349.45 543.54a6 6 0 0 1 6-6h26a6 6 0 0 1 6 6v14.9a6 6 0 0 1-6 6h-26a6 6 0 0 1-6-6z" fill="none"/><use xlink:href="#g" transform="matrix(1,0,0,1,2349.4532808863983,537.5425545901993) translate(14.05777777777778 18.939999999999998)"/><path d="M2348.1 473.62a6 6 0 0 1 6-6h26a6 6 0 0 1 6 6v14.9a6 6 0 0 1-6 6h-26a6 6 0 0 1-6-6z" fill="none"/><use xlink:href="#h" transform="matrix(1,0,0,1,2348.0984251968507,467.6221198326771) translate(11.195555555555558 18.939999999999998)"/><path d="M2596.26 545.04a6 6 0 0 1 6-6h26a6 6 0 0 1 6 6v14.9a6 6 0 0 1-6 6h-26a6 6 0 0 1-6-6z" fill="none"/><use xlink:href="#i" transform="matrix(1,0,0,1,2596.2650918635177,539.0425236683348) translate(11.195555555555558 18.939999999999998)"/><defs><path d="M511 0c-65-5-130-2-195 0v-31c19 0 36-4 36-23 0-18-42-74-119-180l-64 55v103c0 45 11 45 78 45V0C174-3 101-3 28 0v-31c67 0 78 0 78-45v-520c0-49-8-56-78-56v-31l144-11v480l141-122c8-7 22-19 22-39 0-13-10-24-29-25v-31c38 1 134 6 182 0v31c-21 1-63 3-126 54-10 8-81 68-81 72 42 66 89 127 133 190 37 53 60 53 97 53V0" id="j"/><path d="M419 0C319-4 195-4 95 0v-31h32c90 0 93-12 93-48v-518c-52 26-111 26-131 26v-31c32 0 120 0 182-64 23 0 23 2 23 26v561c0 37 3 48 93 48h32V0" id="k"/><g id="a"><use transform="matrix(0.017777777777777774,0,0,0.017777777777777774,0,0)" xlink:href="#j"/><use transform="matrix(0.012444444444444442,0,0,0.012444444444444442,9.386666666666665,2.507555555555555)" xlink:href="#k"/></g><path d="M357-635c0 24-15 44-44 44-27 0-43-20-43-43 0-25 18-38 30-42-72-26-125 27-125 129v116h117v31H178v322c0 36 2 47 76 47h21V0C195-6 114-2 34 0v-31c67 0 78 0 78-45v-324H33v-31h79v-115c0-106 85-159 155-159 53 0 90 33 90 70" id="l"/><g id="b"><use transform="matrix(0.017777777777777774,0,0,0.017777777777777774,0,0)" xlink:href="#l"/><use transform="matrix(0.012444444444444442,0,0,0.012444444444444442,5.439999999999999,2.507555555555555)" xlink:href="#k"/></g><path d="M449-174L421 0H50c0-24 0-26 11-37l192-214c55-62 105-141 105-221 0-82-43-163-134-163-58 0-112 37-135 102 40-7 66 21 66 51 0 41-35 53-52 53-3 0-53 0-53-56 0-89 74-181 187-181 122 0 212 80 212 194 0 100-60 154-216 292L127-77c89-3 198 7 275-8 10-15 17-59 22-89h25" id="m"/><g id="c"><use transform="matrix(0.017777777777777774,0,0,0.017777777777777774,0,0)" xlink:href="#l"/><use transform="matrix(0.012444444444444442,0,0,0.012444444444444442,5.439999999999999,2.507555555555555)" xlink:href="#m"/></g><g id="d"><use transform="matrix(0.017777777777777774,0,0,0.017777777777777774,0,0)" xlink:href="#j"/><use transform="matrix(0.012444444444444442,0,0,0.012444444444444442,9.386666666666665,2.507555555555555)" xlink:href="#m"/></g><path d="M813 0c-75-3-150-3-225 0v-31c67 0 78 0 78-45v-233c0-57-11-111-74-111-64 0-135 56-135 160v184c0 45 11 45 78 45V0c-75-3-150-3-225 0v-31c67 0 78 0 78-45v-233c0-57-11-111-74-111-64 0-135 56-135 160v184c0 45 11 45 78 45V0C182-3 107-3 32 0v-31c67 0 78 0 78-45v-268c0-49-8-56-78-56v-31l141-11v105c28-62 75-105 148-105 45 0 119 11 133 98 17-38 61-98 145-98 58 0 90 21 105 37 53 55 23 235 31 344 2 30 26 30 78 30V0" id="n"/><g id="e"><use transform="matrix(0.017777777777777774,0,0,0.017777777777777774,0,0)" xlink:href="#n"/><use transform="matrix(0.012444444444444442,0,0,0.012444444444444442,14.808888888888886,2.507555555555555)" xlink:href="#k"/></g><g id="f"><use transform="matrix(0.017777777777777774,0,0,0.017777777777777774,0,0)" xlink:href="#n"/><use transform="matrix(0.012444444444444442,0,0,0.012444444444444442,14.808888888888886,2.507555555555555)" xlink:href="#m"/></g><path d="M527 0L380 11v-66c-25 32-70 66-134 66C132 11 34-88 34-215c0-129 105-227 223-227 54 0 97 26 126 62v-216c0-49-8-56-78-56v-31l144-11v607c0 49 8 56 78 56V0zM117-214c0 91 43 203 134 203 43 0 88-22 118-70 11-17 11-19 11-37v-205c0-18 0-20-11-37-31-45-73-60-108-60-106 0-144 115-144 206" id="o"/><use transform="matrix(0.017777777777777774,0,0,0.017777777777777774,0,0)" xlink:href="#o" id="g"/><path d="M516 0c-70-5-135-2-204 0v-31c52-9 36-30 15-58l-76-100c-61 72-90 105-90 127 0 15 7 28 29 31V0C131-2 71-5 12 0v-31c21 0 80-2 128-60 47-57 47-59 94-119l-99-129c-47-60-48-61-118-61v-31c73 5 133 2 203 0v31c-29 1-44 19-26 43l78 101 62-78c17-14 26-66-14-66v-31c43 3 128 5 178 0v31c-114 2-148 95-211 165L421-62c23 29 41 31 95 31V0" id="p"/><g id="h"><use transform="matrix(0.017777777777777774,0,0,0.017777777777777774,0,0)" xlink:href="#p"/><use transform="matrix(0.012444444444444442,0,0,0.012444444444444442,9.386666666666665,2.507555555555555)" xlink:href="#k"/></g><g id="i"><use transform="matrix(0.017777777777777774,0,0,0.017777777777777774,0,0)" xlink:href="#p"/><use transform="matrix(0.012444444444444442,0,0,0.012444444444444442,9.386666666666665,2.507555555555555)" xlink:href="#m"/></g></defs></g></svg>